<?xml version="1.0" standalone="no"?><svg xmlns:xlink="http://www.w3.org/1999/xlink" xmlns="http://www.w3.org/2000/svg" viewBox="0 0 1000 1000" preserveAspectRatio="xMaxYMax slice"><g transform="scale(1.4492753623188406)"><rect x="0" y="0" width="690" height="690" fill="#ffffff"/><circle cx="49.285" cy="49.285" r="9.855" fill="#feefc5"/><circle cx="147.855" cy="49.285" r="9.855" fill="#395db9"/><circle cx="246.42499999999998" cy="49.285" r="9.855" fill="#ebeef8"/><circle cx="344.995" cy="49.285" r="9.855" fill="#e5eaf6"/><circle cx="443.565" cy="49.285" r="9.855" fill="#758ece"/><circle cx="542.145" cy="49.285" r="9.855" fill="#cfd8ee"/><circle cx="640.715" cy="49.285" r="9.855" fill="#fff8e4"/><circle cx="49.285" cy="147.855" r="9.855" fill="#fddb7a"/><circle cx="147.855" cy="147.855" r="9.855" fill="#fde498"/><circle cx="246.42499999999998" cy="147.855" r="9.855" fill="#feeab0"/><circle cx="344.995" cy="147.855" r="9.855" fill="#6682c9"/><circle cx="443.565" cy="147.855" r="9.855" fill="#7a92d0"/><circle cx="542.145" cy="147.855" r="9.855" fill="#3c60bb"/><circle cx="640.715" cy="147.855" r="9.855" fill="#fdda76"/><circle cx="49.285" cy="246.42499999999998" r="9.855" fill="#4869bf"/><circle cx="147.855" cy="246.42499999999998" r="9.855" fill="#fffefa"/><circle cx="246.42499999999998" cy="246.42499999999998" r="9.855" fill="#fff8e6"/><circle cx="344.995" cy="246.42499999999998" r="9.855" fill="#fddc7d"/><circle cx="443.565" cy="246.42499999999998" r="9.855" fill="#fcd560"/><circle cx="542.145" cy="246.42499999999998" r="9.855" fill="#feebb5"/><circle cx="640.715" cy="246.42499999999998" r="9.855" fill="#a2b4df"/><circle cx="49.285" cy="344.995" r="9.855" fill="#fffbf0"/><circle cx="147.855" cy="344.995" r="9.855" fill="#ffffff"/><circle cx="246.42499999999998" cy="344.995" r="9.855" fill="#6a85cb"/><circle cx="344.995" cy="344.995" r="9.855" fill="#3f62bc"/><circle cx="443.565" cy="344.995" r="9.855" fill="#feefc4"/><circle cx="542.145" cy="344.995" r="9.855" fill="#acbbe2"/><circle cx="640.715" cy="344.995" r="9.855" fill="#fef1cb"/><circle cx="49.285" cy="443.565" r="9.855" fill="#fff8e4"/><circle cx="147.855" cy="443.565" r="9.855" fill="#d9e0f2"/><circle cx="246.42499999999998" cy="443.565" r="9.855" fill="#fff9e7"/><circle cx="344.995" cy="443.565" r="9.855" fill="#4064bc"/><circle cx="443.565" cy="443.565" r="9.855" fill="#fde49b"/><circle cx="542.145" cy="443.565" r="9.855" fill="#fffefb"/><circle cx="640.715" cy="443.565" r="9.855" fill="#fef2ce"/><circle cx="49.285" cy="542.145" r="9.855" fill="#fffbf1"/><circle cx="147.855" cy="542.145" r="9.855" fill="#6c87cb"/><circle cx="246.42499999999998" cy="542.145" r="9.855" fill="#4366bd"/><circle cx="344.995" cy="542.145" r="9.855" fill="#fffcf4"/><circle cx="443.565" cy="542.145" r="9.855" fill="#fef1ca"/><circle cx="542.145" cy="542.145" r="9.855" fill="#fef6df"/><circle cx="640.715" cy="542.145" r="9.855" fill="#fffaed"/><circle cx="49.285" cy="640.715" r="9.855" fill="#adbce2"/><circle cx="147.855" cy="640.715" r="9.855" fill="#fde18f"/><circle cx="246.42499999999998" cy="640.715" r="9.855" fill="#feebb5"/><circle cx="344.995" cy="640.715" r="9.855" fill="#fffdf7"/><circle cx="443.565" cy="640.715" r="9.855" fill="#e7ecf7"/><circle cx="542.145" cy="640.715" r="9.855" fill="#fdda76"/><circle cx="640.715" cy="640.715" r="9.855" fill="#e5eaf6"/></g></svg>