<svg width="1090" height="1090" viewBox="0 0 1090 1090" fill="none" xmlns="http://www.w3.org/2000/svg">
<circle cx="50" cy="50" r="50" transform="rotate(-90 50 50)" fill="#2C52B3"/>
<circle cx="50" cy="160" r="50" transform="rotate(180 50 160)" fill="#2C52B3"/>
<circle cx="50" cy="270" r="50" transform="rotate(180 50 270)" fill="#FCD45A"/>
<circle cx="50" cy="380" r="50" transform="rotate(180 50 380)" fill="#2C52B3"/>
<circle cx="50" cy="490" r="50" transform="rotate(90 50 490)" fill="#FCD45A"/>
<circle cx="50" cy="600" r="50" transform="rotate(180 50 600)" fill="#2C52B3"/>
<circle cx="50" cy="710" r="50" transform="rotate(180 50 710)" fill="#2C52B3"/>
<circle cx="50" cy="820" r="50" transform="rotate(-90 50 820)" fill="#FCD45A"/>
<circle cx="50" cy="930" r="50" transform="rotate(180 50 930)" fill="#FCD45A"/>
<circle cx="50" cy="1040" r="50" transform="rotate(180 50 1040)" fill="#FCD45A"/>
<circle cx="160" cy="50" r="50" transform="rotate(180 160 50)" fill="#2C52B3"/>
<circle cx="160" cy="160" r="50" transform="rotate(90 160 160)" fill="#2C52B3"/>
<circle cx="160" cy="270" r="50" transform="rotate(180 160 270)" fill="#FCD45A"/>
<circle cx="160" cy="380" r="50" transform="rotate(90 160 380)" fill="#FCD45A"/>
<circle cx="160" cy="490" r="50" transform="rotate(180 160 490)" fill="#FCD45A"/>
<circle cx="160" cy="600" r="50" transform="rotate(180 160 600)" fill="#FCD45A"/>
<circle cx="160" cy="710" r="50" fill="#FCD45A"/>
<circle cx="160" cy="820" r="50" transform="rotate(90 160 820)" fill="#FCD45A"/>
<circle cx="160" cy="930" r="50" transform="rotate(90 160 930)" fill="#2C52B3"/>
<circle cx="160" cy="1040" r="50" fill="#2C52B3"/>
<circle cx="270" cy="50" r="50" transform="rotate(90 270 50)" fill="#2C52B3"/>
<circle cx="270" cy="160" r="50" transform="rotate(180 270 160)" fill="#2C52B3"/>
<circle cx="270" cy="270" r="50" transform="rotate(180 270 270)" fill="#2C52B3"/>
<circle cx="270" cy="380" r="50" transform="rotate(-90 270 380)" fill="#FCD45A"/>
<circle cx="270" cy="490" r="50" fill="#2C52B3"/>
<circle cx="270" cy="600" r="50" fill="#FCD45A"/>
<circle cx="270" cy="710" r="50" transform="rotate(180 270 710)" fill="#2C52B3"/>
<circle cx="270" cy="820" r="50" transform="rotate(90 270 820)" fill="#2C52B3"/>
<circle cx="270" cy="930" r="50" transform="rotate(-90 270 930)" fill="#2C52B3"/>
<circle cx="270" cy="1040" r="50" fill="#FCD45A"/>
<circle cx="380" cy="50" r="50" transform="rotate(180 380 50)" fill="#2C52B3"/>
<circle cx="380" cy="160" r="50" transform="rotate(-90 380 160)" fill="#2C52B3"/>
<circle cx="380" cy="270" r="50" fill="#2C52B3"/>
<circle cx="380" cy="380" r="50" fill="#FCD45A"/>
<circle cx="380" cy="490" r="50" transform="rotate(180 380 490)" fill="#FCD45A"/>
<circle cx="380" cy="600" r="50" transform="rotate(-90 380 600)" fill="#FCD45A"/>
<circle cx="380" cy="710" r="50" fill="#FCD45A"/>
<circle cx="380" cy="820" r="50" transform="rotate(90 380 820)" fill="#2C52B3"/>
<circle cx="380" cy="930" r="50" fill="#FCD45A"/>
<circle cx="380" cy="1040" r="50" transform="rotate(90 380 1040)" fill="#FCD45A"/>
<circle cx="490" cy="50" r="50" fill="#FCD45A"/>
<circle cx="490" cy="160" r="50" transform="rotate(-90 490 160)" fill="#2C52B3"/>
<circle cx="490" cy="270" r="50" transform="rotate(90 490 270)" fill="#FCD45A"/>
<circle cx="490" cy="380" r="50" transform="rotate(180 490 380)" fill="#FCD45A"/>
<circle cx="490" cy="490" r="50" transform="rotate(-90 490 490)" fill="#2C52B3"/>
<circle cx="490" cy="600" r="50" transform="rotate(-90 490 600)" fill="#2C52B3"/>
<circle cx="490" cy="710" r="50" fill="#2C52B3"/>
<circle cx="490" cy="820" r="50" transform="rotate(180 490 820)" fill="#FCD45A"/>
<circle cx="490" cy="930" r="50" transform="rotate(-90 490 930)" fill="#2C52B3"/>
<circle cx="490" cy="1040" r="50" transform="rotate(180 490 1040)" fill="#FCD45A"/>
<circle cx="600" cy="50" r="50" fill="#FCD45A"/>
<circle cx="600" cy="160" r="50" transform="rotate(-90 600 160)" fill="#FCD45A"/>
<circle cx="600" cy="270" r="50" fill="#2C52B3"/>
<circle cx="600" cy="380" r="50" transform="rotate(180 600 380)" fill="#2C52B3"/>
<circle cx="600" cy="490" r="50" transform="rotate(90 600 490)" fill="#FCD45A"/>
<circle cx="600" cy="600" r="50" transform="rotate(90 600 600)" fill="#2C52B3"/>
<circle cx="600" cy="710" r="50" transform="rotate(-90 600 710)" fill="#2C52B3"/>
<circle cx="600" cy="820" r="50" transform="rotate(180 600 820)" fill="#FCD45A"/>
<circle cx="600" cy="930" r="50" transform="rotate(-90 600 930)" fill="#2C52B3"/>
<circle cx="600" cy="1040" r="50" transform="rotate(180 600 1040)" fill="#2C52B3"/>
<circle cx="710" cy="50" r="50" fill="#2C52B3"/>
<circle cx="710" cy="160" r="50" transform="rotate(180 710 160)" fill="#2C52B3"/>
<circle cx="710" cy="270" r="50" transform="rotate(90 710 270)" fill="#FCD45A"/>
<circle cx="710" cy="380" r="50" transform="rotate(90 710 380)" fill="#FCD45A"/>
<circle cx="710" cy="490" r="50" transform="rotate(90 710 490)" fill="#2C52B3"/>
<circle cx="710" cy="600" r="50" transform="rotate(-90 710 600)" fill="#2C52B3"/>
<circle cx="710" cy="710" r="50" transform="rotate(90 710 710)" fill="#FCD45A"/>
<circle cx="710" cy="820" r="50" transform="rotate(90 710 820)" fill="#2C52B3"/>
<circle cx="710" cy="930" r="50" transform="rotate(90 710 930)" fill="#FCD45A"/>
<circle cx="710" cy="1040" r="50" transform="rotate(90 710 1040)" fill="#FCD45A"/>
<circle cx="820" cy="50" r="50" fill="#2C52B3"/>
<circle cx="820" cy="160" r="50" transform="rotate(-90 820 160)" fill="#2C52B3"/>
<circle cx="820" cy="270" r="50" transform="rotate(-90 820 270)" fill="#FCD45A"/>
<circle cx="820" cy="380" r="50" transform="rotate(-90 820 380)" fill="#FCD45A"/>
<circle cx="820" cy="490" r="50" transform="rotate(180 820 490)" fill="#FCD45A"/>
<circle cx="820" cy="600" r="50" fill="#2C52B3"/>
<circle cx="820" cy="710" r="50" transform="rotate(90 820 710)" fill="#FCD45A"/>
<circle cx="820" cy="820" r="50" transform="rotate(180 820 820)" fill="#FCD45A"/>
<circle cx="820" cy="930" r="50" transform="rotate(-90 820 930)" fill="#FCD45A"/>
<circle cx="820" cy="1040" r="50" transform="rotate(-90 820 1040)" fill="#FCD45A"/>
<circle cx="930" cy="50" r="50" transform="rotate(90 930 50)" fill="#FCD45A"/>
<circle cx="930" cy="160" r="50" transform="rotate(180 930 160)" fill="#FCD45A"/>
<circle cx="930" cy="270" r="50" transform="rotate(90 930 270)" fill="#2C52B3"/>
<circle cx="930" cy="380" r="50" transform="rotate(90 930 380)" fill="#FCD45A"/>
<circle cx="930" cy="490" r="50" transform="rotate(180 930 490)" fill="#FCD45A"/>
<circle cx="930" cy="600" r="50" fill="#2C52B3"/>
<circle cx="930" cy="710" r="50" transform="rotate(90 930 710)" fill="#FCD45A"/>
<circle cx="930" cy="820" r="50" fill="#2C52B3"/>
<circle cx="930" cy="930" r="50" transform="rotate(90 930 930)" fill="#FCD45A"/>
<circle cx="930" cy="1040" r="50" fill="#FCD45A"/>
<circle cx="1040" cy="50" r="50" transform="rotate(90 1040 50)" fill="#FCD45A"/>
<circle cx="1040" cy="160" r="50" transform="rotate(-90 1040 160)" fill="#FCD45A"/>
<circle cx="1040" cy="270" r="50" transform="rotate(-90 1040 270)" fill="#FCD45A"/>
<circle cx="1040" cy="380" r="50" transform="rotate(90 1040 380)" fill="#2C52B3"/>
<circle cx="1040" cy="490" r="50" fill="#2C52B3"/>
<circle cx="1040" cy="600" r="50" transform="rotate(90 1040 600)" fill="#FCD45A"/>
<circle cx="1040" cy="710" r="50" transform="rotate(-90 1040 710)" fill="#2C52B3"/>
<circle cx="1040" cy="820" r="50" transform="rotate(180 1040 820)" fill="#2C52B3"/>
<circle cx="1040" cy="930" r="50" transform="rotate(180 1040 930)" fill="#2C52B3"/>
<circle cx="1040" cy="1040" r="50" fill="#2C52B3"/>
</svg>
