<?xml version="1.0" standalone="no"?><svg xmlns:xlink="http://www.w3.org/1999/xlink" xmlns="http://www.w3.org/2000/svg" viewBox="0 0 1000 1000" preserveAspectRatio="xMaxYMax slice"><g transform="scale(1.4492753623188406)"><rect x="0" y="0" width="690" height="690" fill="#ffffff"/><circle cx="43.125" cy="43.125" r="8.625" fill="#2c53b5"/><circle cx="129.375" cy="43.125" r="8.625" fill="#2c53b5"/><circle cx="215.625" cy="43.125" r="8.625" fill="#fcd35a"/><circle cx="301.875" cy="43.125" r="8.625" fill="#2c53b5"/><circle cx="388.125" cy="43.125" r="8.625" fill="#fcd35a"/><circle cx="474.375" cy="43.125" r="8.625" fill="#fcd35a"/><circle cx="560.625" cy="43.125" r="8.625" fill="#2c53b5"/><circle cx="646.875" cy="43.125" r="8.625" fill="#fcd35a"/><circle cx="43.125" cy="129.375" r="8.625" fill="#fcd35a"/><circle cx="129.38" cy="129.38" r="11.73" fill="#fcd35a"/><circle cx="215.625" cy="129.375" r="14.835" fill="#fcd35a"/><circle cx="301.88" cy="129.38" r="17.94" fill="#2c53b5"/><circle cx="388.125" cy="129.375" r="18.975" fill="#2c53b5"/><circle cx="474.38" cy="129.38" r="17.94" fill="#2c53b5"/><circle cx="560.625" cy="129.375" r="14.835" fill="#2c53b5"/><circle cx="646.88" cy="129.38" r="11.73" fill="#fcd35a"/><circle cx="43.125" cy="215.625" r="8.625" fill="#2c53b5"/><circle cx="129.375" cy="215.625" r="14.835" fill="#2c53b5"/><circle cx="215.625" cy="215.625" r="21.045" fill="#2c53b5"/><circle cx="301.875" cy="215.625" r="27.255" fill="#2c53b5"/><circle cx="388.125" cy="215.625" r="29.325" fill="#fcd35a"/><circle cx="474.375" cy="215.625" r="27.255" fill="#2c53b5"/><circle cx="560.625" cy="215.625" r="21.045" fill="#fcd35a"/><circle cx="646.875" cy="215.625" r="14.835" fill="#2c53b5"/><circle cx="43.125" cy="301.875" r="8.625" fill="#2c53b5"/><circle cx="129.38" cy="301.88" r="17.94" fill="#2c53b5"/><circle cx="215.625" cy="301.875" r="27.255" fill="#2c53b5"/><circle cx="301.88" cy="301.88" r="36.57" fill="#2c53b5"/><circle cx="388.125" cy="301.875" r="39.675" fill="#fcd35a"/><circle cx="474.38" cy="301.88" r="36.57" fill="#2c53b5"/><circle cx="560.625" cy="301.875" r="27.255" fill="#2c53b5"/><circle cx="646.87" cy="301.88" r="17.94" fill="#2c53b5"/><circle cx="43.125" cy="388.125" r="8.625" fill="#2c53b5"/><circle cx="129.375" cy="388.125" r="18.975" fill="#2c53b5"/><circle cx="215.625" cy="388.125" r="29.325" fill="#fcd35a"/><circle cx="301.875" cy="388.125" r="39.675" fill="#2c53b5"/><circle cx="388.125" cy="388.125" r="43.125" fill="#fcd35a"/><circle cx="474.375" cy="388.125" r="39.675" fill="#2c53b5"/><circle cx="560.625" cy="388.125" r="29.325" fill="#fcd35a"/><circle cx="646.875" cy="388.125" r="18.975" fill="#fcd35a"/><circle cx="43.125" cy="474.375" r="8.625" fill="#2c53b5"/><circle cx="129.38" cy="474.38" r="17.94" fill="#fcd35a"/><circle cx="215.625" cy="474.375" r="27.255" fill="#fcd35a"/><circle cx="301.88" cy="474.38" r="36.57" fill="#fcd35a"/><circle cx="388.125" cy="474.375" r="39.675" fill="#2c53b5"/><circle cx="474.38" cy="474.38" r="36.57" fill="#2c53b5"/><circle cx="560.625" cy="474.375" r="27.255" fill="#fcd35a"/><circle cx="646.87" cy="474.38" r="17.94" fill="#fcd35a"/><circle cx="43.125" cy="560.625" r="8.625" fill="#fcd35a"/><circle cx="129.375" cy="560.625" r="14.835" fill="#fcd35a"/><circle cx="215.625" cy="560.625" r="21.045" fill="#fcd35a"/><circle cx="301.875" cy="560.625" r="27.255" fill="#2c53b5"/><circle cx="388.125" cy="560.625" r="29.325" fill="#fcd35a"/><circle cx="474.375" cy="560.625" r="27.255" fill="#2c53b5"/><circle cx="560.625" cy="560.625" r="21.045" fill="#fcd35a"/><circle cx="646.875" cy="560.625" r="14.835" fill="#2c53b5"/><circle cx="43.125" cy="646.875" r="8.625" fill="#2c53b5"/><circle cx="129.38" cy="646.88" r="11.73" fill="#2c53b5"/><circle cx="215.625" cy="646.875" r="14.835" fill="#2c53b5"/><circle cx="301.88" cy="646.87" r="17.94" fill="#fcd35a"/><circle cx="388.125" cy="646.875" r="18.975" fill="#fcd35a"/><circle cx="474.38" cy="646.87" r="17.94" fill="#2c53b5"/><circle cx="560.625" cy="646.875" r="14.835" fill="#2c53b5"/><circle cx="646.88" cy="646.88" r="11.73" fill="#2c53b5"/></g></svg>