<svg width="584" height="386" viewBox="0 0 584 386" fill="none" xmlns="http://www.w3.org/2000/svg">
<path d="M559.808 384.935H388.117C381.87 384.928 375.882 382.445 371.465 378.03C367.048 373.615 364.563 367.629 364.556 361.385V90.6724C364.563 84.4285 367.048 78.4423 371.465 74.0272C375.882 69.6121 381.87 67.1286 388.117 67.1216H559.808C566.055 67.1286 572.043 69.6121 576.46 74.0272C580.877 78.4423 583.362 84.4285 583.369 90.6724V361.385C583.362 367.629 580.877 373.615 576.46 378.03C572.043 382.445 566.055 384.928 559.808 384.935Z" fill="#A3A3A3"/>
<path d="M562.656 81.1743H387.793C385.838 81.1767 383.963 81.9542 382.58 83.3363C381.198 84.7184 380.42 86.5922 380.417 88.5467V362.789C380.421 364.743 381.199 366.617 382.581 367.999C383.964 369.381 385.838 370.158 387.793 370.161H562.656C564.611 370.159 566.486 369.382 567.868 367.999C569.251 366.617 570.029 364.744 570.031 362.789V88.5467C570.029 86.5922 569.251 84.7184 567.868 83.3363C566.486 81.9542 564.611 81.1767 562.656 81.1743Z" fill="white"/>
<path d="M392.313 67.1215C392.314 66.6438 392.504 66.1859 392.842 65.8482C393.18 65.5104 393.638 65.3204 394.116 65.3198H406.372C406.85 65.3198 407.309 65.5096 407.647 65.8475C407.985 66.1854 408.175 66.6437 408.175 67.1215C408.175 67.5993 407.985 68.0576 407.647 68.3955C407.309 68.7333 406.85 68.9231 406.372 68.9231H394.116C393.638 68.9226 393.18 68.7326 392.842 68.3948C392.504 68.0571 392.314 67.5991 392.313 67.1215Z" fill="#E6E6E6"/>
<path d="M412.5 67.1215C412.501 66.6438 412.691 66.1859 413.029 65.8482C413.367 65.5104 413.825 65.3204 414.303 65.3198H426.559C427.037 65.3198 427.496 65.5096 427.834 65.8475C428.172 66.1854 428.362 66.6437 428.362 67.1215C428.362 67.5993 428.172 68.0576 427.834 68.3955C427.496 68.7333 427.037 68.9231 426.559 68.9231H414.303C413.825 68.9226 413.367 68.7326 413.029 68.3948C412.691 68.0571 412.501 67.5991 412.5 67.1215Z" fill="#E6E6E6"/>
<path d="M533.622 67.1215C533.623 66.6438 533.813 66.1859 534.151 65.8482C534.489 65.5104 534.947 65.3204 535.425 65.3198H547.681C548.159 65.3198 548.618 65.5096 548.956 65.8475C549.294 66.1854 549.484 66.6437 549.484 67.1215C549.484 67.5993 549.294 68.0576 548.956 68.3955C548.618 68.7333 548.159 68.9231 547.681 68.9231H535.425C534.947 68.9226 534.489 68.7326 534.151 68.3948C533.813 68.0571 533.623 67.5991 533.622 67.1215Z" fill="#A3A3A3"/>
<path d="M499.456 364.512C499.456 366.407 499.42 368.295 499.333 370.162H387.793C385.838 370.159 383.964 369.381 382.581 367.999C381.199 366.617 380.421 364.744 380.417 362.789V224.753C413.634 230.117 443.854 247.127 465.666 272.736C487.478 298.344 499.456 330.879 499.456 364.512Z" fill="#F2F2F2"/>
<path d="M495.668 151.649H454.07C452.177 151.649 450.642 153.183 450.642 155.076V159.351C450.642 161.243 452.177 162.777 454.07 162.777H495.668C497.561 162.777 499.096 161.243 499.096 159.351V155.076C499.096 153.183 497.561 151.649 495.668 151.649Z" fill="#2C52B3"/>
<path d="M522.107 173.904H427.631C425.738 173.904 424.203 175.438 424.203 177.33V181.606C424.203 183.498 425.738 185.032 427.631 185.032H522.107C524 185.032 525.534 183.498 525.534 181.606V177.33C525.534 175.438 524 173.904 522.107 173.904Z" fill="#E6E6E6"/>
<path d="M522.107 196.16H427.631C425.738 196.16 424.203 197.694 424.203 199.586V203.861C424.203 205.753 425.738 207.287 427.631 207.287H522.107C524 207.287 525.534 205.753 525.534 203.861V199.586C525.534 197.694 524 196.16 522.107 196.16Z" fill="#E6E6E6"/>
<path d="M505.929 351.419C505.387 351.444 504.851 351.302 504.393 351.012C503.935 350.722 503.577 350.298 503.368 349.798C503.159 349.298 503.108 348.746 503.224 348.216C503.339 347.687 503.614 347.205 504.012 346.837L504.194 346.117C504.17 346.06 504.146 346.002 504.122 345.944C503.576 344.656 502.662 343.557 501.493 342.787C500.325 342.016 498.955 341.608 497.555 341.613C496.156 341.618 494.789 342.037 493.626 342.816C492.464 343.595 491.557 344.701 491.021 345.993C488.879 351.151 486.151 356.319 485.479 361.773C485.183 364.183 485.308 366.627 485.848 368.995C480.815 358.022 478.202 346.096 478.185 334.025C478.184 330.995 478.353 327.969 478.69 324.958C478.968 322.49 479.355 320.04 479.849 317.607C482.546 304.408 488.337 292.036 496.747 281.508C500.817 279.288 504.109 275.874 506.178 271.727C506.928 270.236 507.458 268.644 507.751 267.002C507.292 267.062 506.826 267.1 506.366 267.13C506.223 267.137 506.073 267.145 505.93 267.152L505.876 267.155C505.371 267.177 504.871 267.054 504.435 266.799C503.999 266.544 503.646 266.168 503.419 265.717C503.191 265.266 503.099 264.759 503.153 264.257C503.207 263.755 503.406 263.28 503.724 262.888C503.922 262.644 504.121 262.4 504.319 262.156C504.62 261.78 504.929 261.412 505.23 261.035C505.265 261 505.297 260.962 505.328 260.922C505.674 260.494 506.02 260.072 506.366 259.643C505.734 258.663 504.884 257.841 503.883 257.243C500.413 255.212 495.625 256.619 493.119 259.756C490.605 262.894 490.131 267.295 491.004 271.215C491.862 274.551 493.283 277.716 495.204 280.575C495.016 280.816 494.82 281.049 494.632 281.29C491.192 285.711 488.194 290.459 485.681 295.465C486.292 289.857 485.562 284.183 483.552 278.912C481.515 273.999 477.696 269.862 474.333 265.615C470.294 260.513 462.011 262.74 461.3 269.207C461.293 269.269 461.286 269.332 461.28 269.394C461.779 269.676 462.268 269.975 462.747 270.291C463.347 270.693 463.813 271.266 464.082 271.936C464.352 272.607 464.412 273.343 464.256 274.048C464.1 274.754 463.734 275.395 463.206 275.889C462.679 276.383 462.015 276.707 461.3 276.817L461.227 276.828C461.405 278.627 461.719 280.411 462.168 282.162C463.467 287.053 465.763 291.622 468.912 295.584C472.061 299.546 475.994 302.814 480.466 305.185C480.76 305.336 481.046 305.486 481.339 305.629C478.814 312.782 477.23 320.233 476.627 327.795C476.286 332.256 476.306 336.737 476.687 341.195L476.665 341.037C475.701 336.08 473.056 331.607 469.175 328.374C463.412 323.642 455.269 321.899 449.051 318.095C448.391 317.671 447.622 317.444 446.837 317.442C446.052 317.441 445.282 317.663 444.619 318.084C443.957 318.505 443.428 319.106 443.096 319.818C442.764 320.529 442.642 321.32 442.745 322.099C442.754 322.154 442.762 322.209 442.771 322.265C443.698 322.642 444.6 323.077 445.473 323.566C445.972 323.848 446.461 324.147 446.94 324.463C447.541 324.865 448.006 325.438 448.276 326.108C448.545 326.779 448.606 327.515 448.449 328.22C448.293 328.926 447.927 329.567 447.4 330.061C446.872 330.555 446.208 330.879 445.493 330.989L445.42 331C445.368 331.007 445.322 331.015 445.27 331.023C446.853 334.802 449.076 338.282 451.841 341.308C455.256 344.971 459.384 347.898 463.971 349.91C468.558 351.921 473.507 352.976 478.516 353.007H478.524C479.884 358.914 481.854 364.663 484.403 370.162H505.403C505.478 369.928 505.546 369.688 505.614 369.454C503.67 369.577 501.718 369.46 499.803 369.108C501.361 367.197 502.919 365.271 504.477 363.36C504.512 363.324 504.544 363.287 504.575 363.247C505.365 362.269 506.163 361.299 506.953 360.321L506.954 360.319C506.996 357.321 506.651 354.33 505.929 351.419ZM481.881 304.132L481.892 304.117L481.881 304.147V304.132ZM477.229 346.048L477.049 345.641C477.056 345.348 477.056 345.055 477.049 344.754C477.049 344.671 477.034 344.588 477.034 344.505C477.101 345.024 477.162 345.544 477.237 346.063L477.229 346.048Z" fill="#CCCCCC"/>
<path d="M553.915 105.387H396.533C396.193 105.379 395.869 105.239 395.631 104.995C395.393 104.752 395.259 104.425 395.259 104.085C395.259 103.744 395.393 103.417 395.631 103.174C395.869 102.931 396.193 102.79 396.533 102.783H553.915C554.255 102.79 554.579 102.931 554.818 103.174C555.056 103.417 555.189 103.744 555.189 104.085C555.189 104.425 555.056 104.752 554.818 104.995C554.579 105.239 554.255 105.379 553.915 105.387Z" fill="#CACACA"/>
<path d="M404.93 99.0176C407.044 99.0176 408.758 97.2662 408.758 95.1057C408.758 92.9453 407.044 91.1938 404.93 91.1938C402.816 91.1938 401.102 92.9453 401.102 95.1057C401.102 97.2662 402.816 99.0176 404.93 99.0176Z" fill="#FB2F38"/>
<path d="M418.155 99.0176C420.269 99.0176 421.983 97.2662 421.983 95.1057C421.983 92.9453 420.269 91.1938 418.155 91.1938C416.041 91.1938 414.327 92.9453 414.327 95.1057C414.327 97.2662 416.041 99.0176 418.155 99.0176Z" fill="#FB2F38"/>
<path d="M431.379 99.0176C433.494 99.0176 435.208 97.2662 435.208 95.1057C435.208 92.9453 433.494 91.1938 431.379 91.1938C429.265 91.1938 427.551 92.9453 427.551 95.1057C427.551 97.2662 429.265 99.0176 431.379 99.0176Z" fill="#FB2F38"/>
<path d="M547.764 92.7051H539.197C539.027 92.7084 538.865 92.7782 538.746 92.8995C538.627 93.0207 538.561 93.1837 538.561 93.3535C538.561 93.5233 538.627 93.6863 538.746 93.8075C538.865 93.9288 539.027 93.9985 539.197 94.0019H547.764C547.933 93.9985 548.095 93.9288 548.214 93.8075C548.333 93.6863 548.4 93.5233 548.4 93.3535C548.4 93.1837 548.333 93.0207 548.214 92.8995C548.095 92.7782 547.933 92.7084 547.764 92.7051Z" fill="#FB2F38"/>
<path d="M547.764 95.1387H539.197C539.027 95.142 538.865 95.2118 538.746 95.333C538.627 95.4543 538.561 95.6173 538.561 95.7871C538.561 95.9569 538.627 96.1199 538.746 96.2411C538.865 96.3623 539.027 96.4321 539.197 96.4355H547.764C547.933 96.4321 548.095 96.3623 548.214 96.2411C548.333 96.1199 548.4 95.9569 548.4 95.7871C548.4 95.6173 548.333 95.4543 548.214 95.333C548.095 95.2118 547.933 95.142 547.764 95.1387Z" fill="#FB2F38"/>
<path d="M547.764 97.5698H539.197C539.027 97.5732 538.865 97.643 538.746 97.7642C538.627 97.8854 538.561 98.0484 538.561 98.2182C538.561 98.388 538.627 98.551 538.746 98.6723C538.865 98.7935 539.027 98.8633 539.197 98.8666H547.764C547.933 98.8633 548.095 98.7935 548.214 98.6723C548.333 98.551 548.4 98.388 548.4 98.2182C548.4 98.0484 548.333 97.8854 548.214 97.7642C548.095 97.643 547.933 97.5732 547.764 97.5698Z" fill="#FB2F38"/>
<path d="M292.413 224.856H201.167C199.876 224.858 198.639 225.372 197.728 226.286C196.816 227.199 196.305 228.437 196.306 229.728V373.809H297.287V229.728C297.287 229.088 297.161 228.454 296.916 227.863C296.671 227.272 296.312 226.735 295.86 226.282C295.407 225.83 294.87 225.471 294.278 225.226C293.687 224.981 293.053 224.856 292.413 224.856ZM247.097 306.721C244.244 306.708 241.511 305.569 239.493 303.552C237.475 301.535 236.336 298.804 236.322 295.951V279.333C236.325 276.478 237.461 273.741 239.482 271.723C241.502 269.705 244.241 268.572 247.097 268.572C249.953 268.572 252.692 269.705 254.713 271.723C256.733 273.741 257.869 276.478 257.872 279.333V295.951C257.858 298.804 256.719 301.535 254.701 303.552C252.683 305.569 249.951 306.708 247.097 306.721Z" fill="#E6E6E6"/>
<path d="M183.16 369.07V383.232C183.162 383.965 183.522 384.669 184.162 385.188C184.801 385.706 185.668 385.999 186.573 386H307.286C308.189 385.996 309.055 385.704 309.694 385.185C310.333 384.667 310.694 383.965 310.698 383.232V369.07L183.16 369.07Z" fill="#6B6B6B"/>
<path d="M443.508 0H53.4678C50.1167 0.00532895 46.9045 1.33834 44.5349 3.7069C42.1653 6.07547 40.8318 9.28641 40.8264 12.6361V275.728C40.8296 279.078 42.1625 282.29 44.5326 284.659C46.9026 287.028 50.1161 288.361 53.4678 288.364H443.508C446.859 288.361 450.073 287.028 452.443 284.659C454.813 282.29 456.146 279.078 456.149 275.728V12.6361C456.144 9.28641 454.81 6.07547 452.441 3.7069C450.071 1.33834 446.859 0.00532686 443.508 0Z" fill="#A3A3A3"/>
<path d="M440.252 9.12695H56.7264C54.9321 9.13085 53.2127 9.84601 51.9453 11.1155C50.6779 12.3851 49.966 14.1053 49.9658 15.8988V272.469C49.9689 274.261 50.6822 275.978 51.9493 277.244C53.2165 278.511 54.9343 279.224 56.7264 279.227H440.252C442.044 279.224 443.762 278.511 445.029 277.244C446.296 275.978 447.009 274.261 447.012 272.469V15.8988C447.012 14.1053 446.3 12.3851 445.033 11.1155C443.765 9.84601 442.046 9.13085 440.252 9.12695Z" fill="white"/>
<path d="M447.013 15.8988V272.469C447.009 274.261 446.296 275.978 445.029 277.244C443.762 278.511 442.044 279.224 440.252 279.227H305.012C290.052 265.358 277.778 248.85 268.806 230.532C268.216 229.352 267.654 228.157 267.119 226.949C258.945 209.219 253.996 190.175 252.502 170.709C252.404 169.515 252.319 168.321 252.263 167.113C252.08 164.022 251.996 160.889 251.996 157.742C251.969 136.811 255.923 116.067 263.648 96.6127C264.112 95.4044 264.604 94.2102 265.11 93.016C280.655 56.5055 308.746 26.7525 344.311 9.12695H440.252C442.046 9.13085 443.766 9.84601 445.033 11.1155C446.3 12.3851 447.012 14.1053 447.013 15.8988Z" fill="#2C52B3"/>
<path d="M420.973 44.4765H62.1096C61.7364 44.4686 61.3812 44.3148 61.12 44.0482C60.8589 43.7815 60.7126 43.4232 60.7126 43.05C60.7126 42.6769 60.8589 42.3186 61.12 42.0519C61.3812 41.7853 61.7364 41.6315 62.1096 41.6235H420.973C421.346 41.6315 421.701 41.7853 421.963 42.0519C422.224 42.3186 422.37 42.6769 422.37 43.05C422.37 43.4232 422.224 43.7815 421.963 44.0482C421.701 44.3148 421.346 44.4686 420.973 44.4765Z" fill="#CACACA"/>
<path d="M86.5378 34.3397C91.1568 34.3397 94.9013 30.5134 94.9013 25.7934C94.9013 21.0734 91.1568 17.2471 86.5378 17.2471C81.9188 17.2471 78.1743 21.0734 78.1743 25.7934C78.1743 30.5134 81.9188 34.3397 86.5378 34.3397Z" fill="#FB2F38"/>
<path d="M115.43 34.3397C120.049 34.3397 123.793 30.5134 123.793 25.7934C123.793 21.0734 120.049 17.2471 115.43 17.2471C110.811 17.2471 107.066 21.0734 107.066 25.7934C107.066 30.5134 110.811 34.3397 115.43 34.3397Z" fill="#FB2F38"/>
<path d="M144.322 34.3397C148.941 34.3397 152.685 30.5134 152.685 25.7934C152.685 21.0734 148.941 17.2471 144.322 17.2471C139.703 17.2471 135.958 21.0734 135.958 25.7934C135.958 30.5134 139.703 34.3397 144.322 34.3397Z" fill="#FB2F38"/>
<path d="M403.577 19.3657H383.054C382.647 19.3738 382.26 19.541 381.975 19.8314C381.69 20.1218 381.53 20.5123 381.53 20.9191C381.53 21.3258 381.69 21.7163 381.975 22.0067C382.26 22.2972 382.647 22.4644 383.054 22.4724H403.577C403.984 22.4644 404.371 22.2972 404.656 22.0067C404.941 21.7163 405.101 21.3258 405.101 20.9191C405.101 20.5123 404.941 20.1218 404.656 19.8314C404.371 19.541 403.984 19.3738 403.577 19.3657Z" fill="#FB2F38"/>
<path d="M403.577 25.1963H383.054C382.647 25.2043 382.26 25.3715 381.975 25.662C381.69 25.9524 381.53 26.3429 381.53 26.7496C381.53 27.1564 381.69 27.5469 381.975 27.8373C382.26 28.1277 382.647 28.2949 383.054 28.303H403.577C403.984 28.2949 404.371 28.1277 404.656 27.8373C404.941 27.5469 405.101 27.1564 405.101 26.7496C405.101 26.3429 404.941 25.9524 404.656 25.662C404.371 25.3715 403.984 25.2043 403.577 25.1963Z" fill="#FB2F38"/>
<path d="M403.577 31.02H383.054C382.647 31.0281 382.26 31.1953 381.975 31.4857C381.69 31.7761 381.53 32.1666 381.53 32.5734C381.53 32.9801 381.69 33.3706 381.975 33.661C382.26 33.9515 382.647 34.1187 383.054 34.1267H403.577C403.984 34.1187 404.371 33.9515 404.656 33.661C404.941 33.3706 405.101 32.9801 405.101 32.5734C405.101 32.1666 404.941 31.7761 404.656 31.4857C404.371 31.1953 403.984 31.0281 403.577 31.02Z" fill="#FB2F38"/>
<path d="M171.989 127.814H121.805C119.912 127.814 118.378 129.348 118.378 131.241V136.58C118.378 138.473 119.912 140.007 121.805 140.007H171.989C173.882 140.007 175.417 138.473 175.417 136.58V131.241C175.417 129.348 173.882 127.814 171.989 127.814Z" fill="#2C52B3"/>
<path d="M200.957 152.199H92.8372C90.9442 152.199 89.4097 153.733 89.4097 155.625V160.965C89.4097 162.857 90.9442 164.391 92.8372 164.391H200.957C202.85 164.391 204.385 162.857 204.385 160.965V155.625C204.385 153.733 202.85 152.199 200.957 152.199Z" fill="#E6E6E6"/>
<path d="M200.957 176.583H92.8372C90.9442 176.583 89.4097 178.116 89.4097 180.009V185.348C89.4097 187.241 90.9442 188.775 92.8372 188.775H200.957C202.85 188.775 204.385 187.241 204.385 185.348V180.009C204.385 178.116 202.85 176.583 200.957 176.583Z" fill="#E6E6E6"/>
<path d="M98.7937 264.517C98.8022 269.539 97.9071 274.522 96.1513 279.227H56.7264C54.9343 279.224 53.2165 278.511 51.9493 277.244C50.6822 275.978 49.9689 274.261 49.9658 272.469V222.903C52.1686 222.547 54.3966 222.368 56.628 222.369C62.1654 222.369 67.6486 223.459 72.7645 225.577C77.8805 227.695 82.5289 230.799 86.4444 234.713C90.36 238.627 93.4659 243.274 95.5848 248.388C97.7037 253.501 98.7941 258.982 98.7937 264.517Z" fill="#2C52B3"/>
<path opacity="0.2" d="M447.364 96.6123V93.0156H387.053V51.3311H383.469V93.0157H314.345V51.3311H310.761V93.0157H265.109C264.603 94.2098 264.112 95.4041 263.648 96.6124H310.761V167.112H252.263C252.319 168.321 252.403 169.515 252.502 170.709H310.761V226.949H267.119C267.653 228.157 268.216 229.351 268.806 230.532H310.761V277.808H314.345V230.531H383.469V277.808H387.053V230.531H447.364V226.949H387.053C387.053 219.563 388.508 212.25 391.336 205.427C394.163 198.603 398.307 192.404 403.532 187.181C408.756 181.959 414.959 177.816 421.785 174.99C428.611 172.164 435.927 170.709 443.316 170.709H447.364V167.112H387.053V96.6123H447.364ZM383.469 226.949H314.345V170.709H383.469V226.949ZM383.469 167.112H314.345V165.707C314.345 147.382 321.628 129.808 334.591 116.85C347.554 103.892 365.136 96.6123 383.469 96.6123L383.469 167.112Z" fill="black"/>
<path d="M398.804 252.609C398.035 252.645 397.273 252.443 396.623 252.031C395.972 251.619 395.464 251.017 395.167 250.307C394.87 249.597 394.798 248.813 394.962 248.06C395.126 247.308 395.517 246.624 396.082 246.102C396.177 245.726 396.245 245.455 396.34 245.079C396.306 244.997 396.272 244.915 396.237 244.834C392.779 236.592 381.06 236.649 377.632 244.903C374.589 252.229 370.715 259.567 369.761 267.313C369.34 270.737 369.518 274.208 370.284 277.571C363.137 261.987 359.426 245.049 359.402 227.905C359.4 223.603 359.64 219.304 360.118 215.029C360.514 211.524 361.063 208.044 361.765 204.589C365.595 185.842 373.82 168.272 385.763 153.32C391.544 150.167 396.219 145.319 399.158 139.428C400.223 137.311 400.975 135.051 401.392 132.718C400.74 132.803 400.077 132.857 399.425 132.9C399.222 132.91 399.008 132.921 398.805 132.932L398.729 132.935C398.012 132.967 397.301 132.792 396.682 132.429C396.063 132.067 395.562 131.534 395.239 130.894C394.916 130.253 394.785 129.533 394.862 128.82C394.939 128.107 395.22 127.432 395.672 126.875C395.954 126.529 396.236 126.182 396.517 125.836C396.945 125.302 397.383 124.779 397.811 124.244C397.86 124.194 397.907 124.14 397.95 124.084C398.442 123.475 398.933 122.877 399.425 122.267C398.528 120.875 397.32 119.708 395.897 118.859C390.969 115.974 384.171 117.972 380.611 122.428C377.04 126.884 376.367 133.135 377.607 138.702C378.665 143.468 380.974 147.838 383.572 151.995C383.305 152.337 383.027 152.668 382.759 153.01C377.874 159.289 373.616 166.032 370.047 173.142C370.915 165.177 369.879 157.12 367.024 149.633C364.13 142.656 358.707 136.78 353.931 130.748C348.195 123.503 336.432 126.665 335.421 135.849C335.411 135.938 335.402 136.027 335.392 136.116C336.102 136.516 336.796 136.941 337.475 137.39C338.329 137.96 338.99 138.774 339.373 139.726C339.755 140.678 339.841 141.724 339.619 142.726C339.397 143.727 338.878 144.639 338.129 145.34C337.379 146.042 336.436 146.501 335.421 146.657L335.317 146.673C335.57 149.229 336.017 151.761 336.654 154.249C338.499 161.195 341.76 167.684 346.232 173.311C350.704 178.937 356.29 183.58 362.641 186.947C363.058 187.161 363.464 187.374 363.881 187.578C360.295 197.736 358.045 208.318 357.189 219.057C356.704 225.393 356.733 231.757 357.275 238.088L357.243 237.864C355.874 230.824 352.117 224.472 346.606 219.88C338.421 213.159 326.856 210.684 318.026 205.281C313.775 202.68 308.328 206.041 309.07 210.967C309.081 211.046 309.093 211.125 309.106 211.203C310.422 211.739 311.704 212.357 312.943 213.052C313.653 213.452 314.347 213.877 315.026 214.326C315.88 214.896 316.541 215.71 316.924 216.662C317.306 217.614 317.392 218.66 317.17 219.662C316.948 220.663 316.429 221.575 315.68 222.276C314.931 222.978 313.987 223.437 312.972 223.593L312.868 223.609C312.794 223.62 312.729 223.631 312.655 223.641C314.904 229.009 318.061 233.951 321.987 238.248C326.837 243.451 332.699 247.608 339.214 250.465C345.729 253.322 352.758 254.819 359.872 254.864H359.883C361.814 263.253 364.612 271.417 368.232 279.227H398.057C398.164 278.896 398.26 278.554 398.356 278.223C395.596 278.396 392.824 278.231 390.103 277.731C392.316 275.017 394.529 272.282 396.742 269.568C396.791 269.517 396.838 269.463 396.881 269.407C398.003 268.018 399.136 266.64 400.259 265.251L400.26 265.249C400.319 260.991 399.831 256.743 398.805 252.61L398.804 252.609ZM364.651 185.451L364.666 185.43L364.651 185.472V185.451ZM358.044 244.98L357.788 244.403C357.799 243.987 357.799 243.57 357.788 243.142C357.788 243.025 357.766 242.907 357.766 242.79C357.863 243.527 357.948 244.264 358.055 245.002L358.044 244.98Z" fill="#2F2E41"/>
<path d="M133.223 182.883V142.816C133.223 136.666 130.779 130.767 126.428 126.418C122.077 122.069 116.176 119.626 110.024 119.626H25.0999C18.947 119.626 13.0461 122.069 8.69538 126.418C4.34462 130.767 1.90039 136.666 1.90039 142.816V362.629C1.90039 368.78 4.34462 374.678 8.69538 379.027C13.0461 383.376 18.947 385.819 25.0999 385.819H110.024C113.07 385.819 116.087 385.219 118.902 384.054C121.716 382.889 124.274 381.181 126.428 379.027C128.582 376.874 130.291 374.317 131.457 371.504C132.623 368.69 133.223 365.675 133.223 362.629V211.404C133.611 211.404 133.983 211.25 134.258 210.976C134.532 210.701 134.686 210.329 134.686 209.942V184.346C134.686 183.958 134.532 183.586 134.258 183.312C133.983 183.038 133.611 182.883 133.223 182.883Z" fill="#A3A3A3"/>
<path d="M128.286 142.975V362.471C128.286 367.03 126.487 371.405 123.279 374.646C120.071 377.887 115.713 379.732 111.152 379.779C111.089 379.786 111.026 379.788 110.962 379.787H25.6253C21.031 379.787 16.625 377.962 13.3764 374.715C10.1277 371.467 8.30243 367.063 8.302 362.471V142.975C8.30242 138.382 10.1277 133.978 13.3764 130.731C16.625 127.484 21.031 125.659 25.6253 125.659H35.9814C35.4723 126.908 35.2783 128.264 35.4164 129.606C35.5545 130.949 36.0206 132.236 36.7735 133.356C37.5264 134.476 38.5432 135.394 39.7343 136.029C40.9254 136.664 42.2544 136.997 43.6043 136.998H92.2566C93.6053 136.994 94.9325 136.659 96.1218 136.023C97.3111 135.388 98.3261 134.47 99.0778 133.35C99.8295 132.231 100.295 130.944 100.433 129.603C100.572 128.262 100.379 126.908 99.8716 125.659H110.962C115.557 125.659 119.963 127.484 123.211 130.731C126.46 133.978 128.285 138.382 128.286 142.975Z" fill="white"/>
<path d="M111.365 373.012C111.365 375.286 111.294 377.542 111.152 379.779C111.089 379.786 111.026 379.788 110.962 379.787H25.6253C21.031 379.787 16.625 377.962 13.3764 374.715C10.1277 371.467 8.30243 367.063 8.302 362.471V264.654C36.1062 266.055 62.3085 278.083 81.4908 298.251C100.673 318.419 111.368 345.184 111.365 373.012Z" fill="#F2F2F2"/>
<path d="M2.36962 205.299C1.84605 205.298 1.3441 205.09 0.973874 204.72C0.603652 204.35 0.395392 203.848 0.394775 203.325V189.901C0.394775 189.378 0.602843 188.876 0.973199 188.505C1.34355 188.135 1.84586 187.927 2.36962 187.927C2.89338 187.927 3.39569 188.135 3.76604 188.505C4.1364 188.876 4.34446 189.378 4.34446 189.901V203.325C4.34385 203.848 4.13559 204.35 3.76537 204.72C3.39514 205.09 2.89319 205.298 2.36962 205.299Z" fill="#A3A3A3"/>
<path d="M78.7721 194.581H57.8159C55.923 194.581 54.3884 196.114 54.3884 198.007V203.347C54.3884 205.239 55.923 206.773 57.8159 206.773H78.7721C80.6651 206.773 82.1996 205.239 82.1996 203.347V198.007C82.1996 196.114 80.6651 194.581 78.7721 194.581Z" fill="#2C52B3"/>
<path d="M107.74 218.964H28.8479C26.955 218.964 25.4204 220.498 25.4204 222.39V227.73C25.4204 229.622 26.955 231.156 28.8479 231.156H107.74C109.633 231.156 111.168 229.622 111.168 227.73V222.39C111.168 220.498 109.633 218.964 107.74 218.964Z" fill="#E6E6E6"/>
<path d="M107.74 243.349H28.8479C26.955 243.349 25.4204 244.883 25.4204 246.775V252.115C25.4204 254.007 26.955 255.541 28.8479 255.541H107.74C109.633 255.541 111.168 254.007 111.168 252.115V246.775C111.168 244.883 109.633 243.349 107.74 243.349Z" fill="#E6E6E6"/>
<path d="M88.7575 367.296C88.3965 367.312 88.0391 367.217 87.7338 367.024C87.4284 366.831 87.1899 366.549 87.0505 366.215C86.9111 365.882 86.8775 365.514 86.9544 365.161C87.0312 364.808 87.2148 364.487 87.4801 364.242L87.6009 363.762C87.585 363.724 87.569 363.685 87.5529 363.647C87.1892 362.788 86.5798 362.056 85.8012 361.542C85.0226 361.029 84.1095 360.757 83.1766 360.76C82.2438 360.764 81.3328 361.043 80.558 361.562C79.7832 362.081 79.1793 362.818 78.822 363.679C77.394 367.117 75.5759 370.561 75.1283 374.196C74.9311 375.802 75.0143 377.431 75.3741 379.009C72.0201 371.696 70.2785 363.748 70.2673 355.703C70.2666 353.684 70.3788 351.667 70.6034 349.66C70.7891 348.016 71.0466 346.383 71.376 344.761C73.1736 335.964 77.0333 327.719 82.6379 320.702C85.3505 319.223 87.5442 316.948 88.9235 314.184C89.4231 313.19 89.7763 312.129 89.9719 311.035C89.6659 311.075 89.3549 311.1 89.0489 311.12C88.9536 311.125 88.8533 311.13 88.7579 311.135L88.722 311.137C88.3857 311.152 88.0522 311.069 87.7616 310.899C87.4711 310.729 87.2359 310.479 87.0844 310.178C86.9328 309.878 86.8714 309.54 86.9075 309.206C86.9436 308.871 87.0757 308.554 87.2878 308.293C87.4199 308.13 87.5521 307.968 87.6844 307.805C87.8851 307.555 88.0908 307.309 88.2914 307.058C88.3146 307.034 88.3363 307.009 88.3566 306.983C88.5874 306.697 88.8181 306.416 89.0489 306.131C88.6277 305.477 88.0612 304.93 87.3935 304.531C85.0809 303.177 81.8904 304.115 80.2199 306.206C78.5445 308.297 78.2284 311.23 78.8103 313.843C79.3826 316.066 80.3291 318.175 81.6095 320.08C81.4841 320.241 81.3536 320.396 81.2282 320.557C78.9357 323.504 76.9376 326.668 75.2626 330.004C75.6699 326.266 75.1837 322.486 73.844 318.972C72.4863 315.698 69.9413 312.941 67.7002 310.11C67.1074 309.35 66.3025 308.782 65.387 308.479C64.4716 308.176 63.4868 308.151 62.5572 308.407C61.6275 308.663 60.7947 309.189 60.164 309.919C59.5333 310.648 59.133 311.547 59.0138 312.504C59.0092 312.546 59.0048 312.588 59.0004 312.629C59.3333 312.817 59.6591 313.016 59.978 313.227C60.3785 313.494 60.6888 313.877 60.8683 314.323C61.0478 314.77 61.0881 315.261 60.9839 315.731C60.8798 316.201 60.6359 316.629 60.2844 316.958C59.9329 317.287 59.4901 317.503 59.014 317.576L58.9653 317.583C59.0839 318.783 59.2935 319.971 59.5923 321.139C60.4583 324.398 61.9884 327.443 64.0869 330.083C66.1854 332.724 68.807 334.902 71.7873 336.483C71.9829 336.583 72.1736 336.683 72.3692 336.778C70.6863 341.546 69.6307 346.511 69.2289 351.551C69.0015 354.524 69.0149 357.51 69.2691 360.481L69.254 360.376C68.6119 357.072 66.8488 354.092 64.2626 351.937C60.4215 348.783 54.9947 347.621 50.8508 345.086C50.4104 344.803 49.8983 344.653 49.375 344.651C48.8516 344.65 48.3388 344.798 47.897 345.079C47.4553 345.359 47.1029 345.76 46.8816 346.234C46.6603 346.708 46.5793 347.236 46.648 347.754L46.665 347.865C47.2827 348.117 47.8842 348.406 48.4659 348.733C48.7987 348.92 49.1246 349.12 49.4434 349.33C49.8439 349.598 50.1543 349.98 50.3338 350.427C50.5133 350.874 50.5536 351.364 50.4494 351.834C50.3452 352.305 50.1014 352.732 49.7499 353.061C49.3984 353.391 48.9556 353.606 48.4795 353.679L48.4307 353.687C48.3956 353.692 48.3655 353.697 48.3304 353.702C49.3859 356.221 50.8673 358.54 52.7097 360.557C54.9858 362.998 57.7367 364.949 60.7937 366.289C63.8508 367.63 67.1497 368.333 70.488 368.354H70.493C71.3992 372.29 72.7123 376.122 74.4109 379.787H88.4068C88.457 379.631 88.5021 379.471 88.5472 379.315C87.2518 379.397 85.9512 379.319 84.6745 379.085C85.7129 377.811 86.7513 376.527 87.7897 375.254C87.8129 375.23 87.8347 375.205 87.855 375.178C88.3817 374.527 88.9134 373.88 89.4401 373.228L89.4404 373.227C89.4685 371.229 89.2387 369.235 88.7575 367.296ZM72.7304 335.781L72.7377 335.771L72.7304 335.791V335.781ZM69.6303 363.716L69.5098 363.445C69.5149 363.249 69.5149 363.054 69.5098 362.853C69.5098 362.798 69.4998 362.743 69.4998 362.688C69.545 363.034 69.5851 363.38 69.6352 363.726L69.6303 363.716Z" fill="#CCCCCC"/>
<path d="M1.97484 179.242C1.45127 179.241 0.94932 179.033 0.579098 178.663C0.208877 178.293 0.000616724 177.791 0 177.268V163.844C0 163.321 0.208068 162.819 0.578423 162.448C0.948778 162.078 1.45108 161.87 1.97484 161.87C2.49861 161.87 3.00091 162.078 3.37127 162.448C3.74162 162.819 3.94969 163.321 3.94969 163.844V177.268C3.94907 177.791 3.74081 178.293 3.37059 178.663C3.00037 179.033 2.49842 179.241 1.97484 179.242Z" fill="#A3A3A3"/>
<path d="M54.5056 127.916C54.5062 127.393 54.7145 126.891 55.0847 126.521C55.4549 126.151 55.9569 125.943 56.4805 125.942H69.9094C70.4332 125.942 70.9355 126.15 71.3058 126.521C71.6762 126.891 71.8842 127.393 71.8842 127.916C71.8842 128.44 71.6762 128.942 71.3058 129.312C70.9355 129.682 70.4332 129.89 69.9094 129.89H56.4805C55.9569 129.89 55.4549 129.682 55.0847 129.312C54.7145 128.942 54.5062 128.44 54.5056 127.916Z" fill="white"/>
<path d="M2.36962 228.197C1.84605 228.197 1.3441 227.988 0.973874 227.618C0.603652 227.248 0.395392 226.746 0.394775 226.223V212.8C0.394775 212.276 0.602843 211.774 0.973199 211.404C1.34355 211.034 1.84586 210.826 2.36962 210.826C2.89338 210.826 3.39569 211.034 3.76604 211.404C4.1364 211.774 4.34446 212.276 4.34446 212.8V226.223C4.34385 226.746 4.13559 227.248 3.76537 227.618C3.39514 227.988 2.89319 228.197 2.36962 228.197Z" fill="#A3A3A3"/>
<path d="M77.4141 129.89C78.5047 129.89 79.3889 129.007 79.3889 127.916C79.3889 126.826 78.5047 125.942 77.4141 125.942C76.3234 125.942 75.4392 126.826 75.4392 127.916C75.4392 129.007 76.3234 129.89 77.4141 129.89Z" fill="white"/>
</svg>
