<svg width="791" height="70" viewBox="0 0 791 70" fill="none" xmlns="http://www.w3.org/2000/svg">
<mask id="path-1-outside-1_146_6" maskUnits="userSpaceOnUse" x="0" y="0" width="791" height="71" fill="black">
<rect fill="white" width="791" height="71"/>
<path d="M25.0781 46.9062L19.4062 68H3L20.5781 2.375H79.1719L84.3281 9.40625L76.1719 39.875L67.2656 46.9062H25.0781ZM65.3906 18.7812H32.625L29.4844 30.5H62.25L65.3906 18.7812ZM47.5312 68L40.6875 58.625L57.2344 49.25L70.9688 68H47.5312Z"/>
<path d="M131.126 41.75L134.642 28.625H108.392L104.876 41.75H131.126ZM101.361 54.875L97.845 68L84.72 67.9531L97.2825 21.125L104.454 15.5H145.658L149.783 21.125L137.22 68H124.095L127.611 54.875H101.361ZM169.393 48.3125L164.096 68H150.971L156.503 47.375L163.628 41.75L159.503 36.125L163.534 21.1719L170.659 15.5H217.534L214.018 28.625H174.69L172.956 35.1875H197.284L193.768 48.3125H169.393ZM263.629 41.75L267.144 28.625H240.894L237.379 41.75H263.629ZM233.863 54.875L230.348 68L217.223 67.9531L229.785 21.125L236.957 15.5H278.16L282.285 21.125L269.723 68H256.598L260.113 54.875H233.863ZM301.896 48.3125L300.114 54.8281L339.489 54.875L335.974 68H289.146L284.974 62.375L289.005 47.375L296.13 41.75L292.005 36.125L296.036 21.1719L303.161 15.5H350.036L346.521 28.625H307.193L305.458 35.1875H329.786L326.271 48.3125H301.896ZM363.788 15.5H376.913L366.366 54.875H398.241L394.725 68H349.725L363.788 15.5ZM578.479 41.75L581.994 28.625H555.744L552.229 41.75H578.479ZM548.713 54.875L545.198 68L532.073 67.9531L544.635 21.125L551.807 15.5H593.01L597.135 21.125L584.573 68H571.448L574.963 54.875H548.713ZM612.386 15.5H625.511L614.964 54.875H646.839L643.324 68H598.324L612.386 15.5ZM710.513 15.5H723.638L714.872 48.3125L689.888 68H676.763L662.372 48.3125L671.138 15.5469L684.263 15.5L677.231 41.75L686.841 54.875L703.481 41.75L710.513 15.5ZM766.217 54.875L773.248 28.625H746.998L739.967 54.875H766.217ZM777.326 62.375L770.201 68H728.998L724.826 62.375L735.889 21.1719L743.014 15.5H784.264L788.389 21.125L777.326 62.375Z"/>
<path d="M530.274 23.4688H513.868L515.134 18.7344L482.321 18.7812L473.509 51.5469L492.259 51.5938H506.321L507.587 46.9062H523.993L520.196 60.9688L511.29 68H459.774L454.571 60.9688L468.399 9.45312L477.306 2.375H528.868L534.024 9.40625L530.274 23.4688Z"/>
</mask>
<path d="M25.0781 46.9062L19.4062 68H3L20.5781 2.375H79.1719L84.3281 9.40625L76.1719 39.875L67.2656 46.9062H25.0781ZM65.3906 18.7812H32.625L29.4844 30.5H62.25L65.3906 18.7812ZM47.5312 68L40.6875 58.625L57.2344 49.25L70.9688 68H47.5312Z" fill="#FB2F38"/>
<path d="M131.126 41.75L134.642 28.625H108.392L104.876 41.75H131.126ZM101.361 54.875L97.845 68L84.72 67.9531L97.2825 21.125L104.454 15.5H145.658L149.783 21.125L137.22 68H124.095L127.611 54.875H101.361ZM169.393 48.3125L164.096 68H150.971L156.503 47.375L163.628 41.75L159.503 36.125L163.534 21.1719L170.659 15.5H217.534L214.018 28.625H174.69L172.956 35.1875H197.284L193.768 48.3125H169.393ZM263.629 41.75L267.144 28.625H240.894L237.379 41.75H263.629ZM233.863 54.875L230.348 68L217.223 67.9531L229.785 21.125L236.957 15.5H278.16L282.285 21.125L269.723 68H256.598L260.113 54.875H233.863ZM301.896 48.3125L300.114 54.8281L339.489 54.875L335.974 68H289.146L284.974 62.375L289.005 47.375L296.13 41.75L292.005 36.125L296.036 21.1719L303.161 15.5H350.036L346.521 28.625H307.193L305.458 35.1875H329.786L326.271 48.3125H301.896ZM363.788 15.5H376.913L366.366 54.875H398.241L394.725 68H349.725L363.788 15.5ZM578.479 41.75L581.994 28.625H555.744L552.229 41.75H578.479ZM548.713 54.875L545.198 68L532.073 67.9531L544.635 21.125L551.807 15.5H593.01L597.135 21.125L584.573 68H571.448L574.963 54.875H548.713ZM612.386 15.5H625.511L614.964 54.875H646.839L643.324 68H598.324L612.386 15.5ZM710.513 15.5H723.638L714.872 48.3125L689.888 68H676.763L662.372 48.3125L671.138 15.5469L684.263 15.5L677.231 41.75L686.841 54.875L703.481 41.75L710.513 15.5ZM766.217 54.875L773.248 28.625H746.998L739.967 54.875H766.217ZM777.326 62.375L770.201 68H728.998L724.826 62.375L735.889 21.1719L743.014 15.5H784.264L788.389 21.125L777.326 62.375Z" fill="white"/>
<path d="M530.274 23.4688H513.868L515.134 18.7344L482.321 18.7812L473.509 51.5469L492.259 51.5938H506.321L507.587 46.9062H523.993L520.196 60.9688L511.29 68H459.774L454.571 60.9688L468.399 9.45312L477.306 2.375H528.868L534.024 9.40625L530.274 23.4688Z" fill="#FCD45A"/>
<path d="M25.0781 46.9062V44.9062H23.5449L23.1467 46.3869L25.0781 46.9062ZM19.4062 68V70H20.9395L21.3376 68.5193L19.4062 68ZM3 68L1.0681 67.4825L0.393781 70H3V68ZM20.5781 2.375V0.375H19.0433L18.6462 1.85753L20.5781 2.375ZM79.1719 2.375L80.7847 1.19227L80.1853 0.375H79.1719V2.375ZM84.3281 9.40625L86.2601 9.92343L86.5081 8.99695L85.9409 8.22352L84.3281 9.40625ZM76.1719 39.875L77.4112 41.4448L77.9322 41.0334L78.1039 40.3922L76.1719 39.875ZM67.2656 46.9062V48.9062H67.96L68.5049 48.476L67.2656 46.9062ZM65.3906 18.7812L67.3224 19.299L67.9972 16.7812H65.3906V18.7812ZM32.625 18.7812V16.7812H31.0904L30.6932 18.2635L32.625 18.7812ZM29.4844 30.5L27.5525 29.9823L26.8778 32.5H29.4844V30.5ZM62.25 30.5V32.5H63.7846L64.1818 31.0177L62.25 30.5ZM47.5312 68L45.9159 69.1792L46.515 70H47.5312V68ZM40.6875 58.625L39.7016 56.8849L37.7487 57.9913L39.0721 59.8042L40.6875 58.625ZM57.2344 49.25L58.8478 48.0681L57.7965 46.6328L56.2485 47.5099L57.2344 49.25ZM70.9688 68V70H74.9129L72.5822 66.8181L70.9688 68ZM25.0781 46.9062L23.1467 46.3869L17.4749 67.4807L19.4062 68L21.3376 68.5193L27.0095 47.4256L25.0781 46.9062ZM19.4062 68V66H3V68V70H19.4062V68ZM3 68L4.9319 68.5175L22.51 2.89247L20.5781 2.375L18.6462 1.85753L1.0681 67.4825L3 68ZM20.5781 2.375V4.375H79.1719V2.375V0.375H20.5781V2.375ZM79.1719 2.375L77.5591 3.55773L82.7153 10.589L84.3281 9.40625L85.9409 8.22352L80.7847 1.19227L79.1719 2.375ZM84.3281 9.40625L82.3961 8.88907L74.2399 39.3578L76.1719 39.875L78.1039 40.3922L86.2601 9.92343L84.3281 9.40625ZM76.1719 39.875L74.9326 38.3052L66.0263 45.3365L67.2656 46.9062L68.5049 48.476L77.4112 41.4448L76.1719 39.875ZM67.2656 46.9062V44.9062H25.0781V46.9062V48.9062H67.2656V46.9062ZM65.3906 18.7812V16.7812H32.625V18.7812V20.7812H65.3906V18.7812ZM32.625 18.7812L30.6932 18.2635L27.5525 29.9823L29.4844 30.5L31.4162 31.0177L34.5568 19.299L32.625 18.7812ZM29.4844 30.5V32.5H62.25V30.5V28.5H29.4844V30.5ZM62.25 30.5L64.1818 31.0177L67.3224 19.299L65.3906 18.7812L63.4588 18.2635L60.3182 29.9823L62.25 30.5ZM47.5312 68L49.1466 66.8208L42.3029 57.4458L40.6875 58.625L39.0721 59.8042L45.9159 69.1792L47.5312 68ZM40.6875 58.625L41.6734 60.3651L58.2203 50.9901L57.2344 49.25L56.2485 47.5099L39.7016 56.8849L40.6875 58.625ZM57.2344 49.25L55.6209 50.4319L69.3553 69.1819L70.9688 68L72.5822 66.8181L58.8478 48.0681L57.2344 49.25ZM70.9688 68V66H47.5312V68V70H70.9688V68ZM131.126 41.75V43.75H132.661L133.058 42.2675L131.126 41.75ZM134.642 28.625L136.574 29.1425L137.248 26.625H134.642V28.625ZM108.392 28.625V26.625H106.857L106.46 28.1075L108.392 28.625ZM104.876 41.75L102.944 41.2325L102.27 43.75H104.876V41.75ZM101.361 54.875V52.875H99.8258L99.4287 54.3575L101.361 54.875ZM97.845 68L97.8379 70L99.3783 70.0055L99.7769 68.5175L97.845 68ZM84.72 67.9531L82.7883 67.4349L82.1152 69.9438L84.7129 69.9531L84.72 67.9531ZM97.2825 21.125L96.0482 19.5513L95.5236 19.9628L95.3508 20.6068L97.2825 21.125ZM104.454 15.5V13.5H103.764L103.22 13.9263L104.454 15.5ZM145.658 15.5L147.27 14.3173L146.671 13.5H145.658V15.5ZM149.783 21.125L151.714 21.6427L151.963 20.716L151.395 19.9423L149.783 21.125ZM137.22 68V70H138.755L139.152 68.5177L137.22 68ZM124.095 68L122.163 67.4825L121.489 70H124.095V68ZM127.611 54.875L129.543 55.3925L130.217 52.875H127.611V54.875ZM131.126 41.75L133.058 42.2675L136.574 29.1425L134.642 28.625L132.71 28.1075L129.194 41.2325L131.126 41.75ZM134.642 28.625V26.625H108.392V28.625V30.625H134.642V28.625ZM108.392 28.625L106.46 28.1075L102.944 41.2325L104.876 41.75L106.808 42.2675L110.324 29.1425L108.392 28.625ZM104.876 41.75V43.75H131.126V41.75V39.75H104.876V41.75ZM101.361 54.875L99.4287 54.3575L95.9131 67.4825L97.845 68L99.7769 68.5175L103.293 55.3925L101.361 54.875ZM97.845 68L97.8521 66L84.7271 65.9531L84.72 67.9531L84.7129 69.9531L97.8379 70L97.845 68ZM84.72 67.9531L86.6517 68.4713L99.2142 21.6432L97.2825 21.125L95.3508 20.6068L82.7883 67.4349L84.72 67.9531ZM97.2825 21.125L98.5168 22.6987L105.689 17.0737L104.454 15.5L103.22 13.9263L96.0482 19.5513L97.2825 21.125ZM104.454 15.5V17.5H145.658V15.5V13.5H104.454V15.5ZM145.658 15.5L144.045 16.6827L148.17 22.3077L149.783 21.125L151.395 19.9423L147.27 14.3173L145.658 15.5ZM149.783 21.125L147.851 20.6073L135.288 67.4823L137.22 68L139.152 68.5177L151.714 21.6427L149.783 21.125ZM137.22 68V66H124.095V68V70H137.22V68ZM124.095 68L126.027 68.5175L129.543 55.3925L127.611 54.875L125.679 54.3575L122.163 67.4825L124.095 68ZM127.611 54.875V52.875H101.361V54.875V56.875H127.611V54.875ZM169.393 48.3125V46.3125H167.86L167.462 47.7929L169.393 48.3125ZM164.096 68V70H165.629L166.028 68.5196L164.096 68ZM150.971 68L149.04 67.4819L148.364 70H150.971V68ZM156.503 47.375L155.263 45.8052L154.743 46.2163L154.571 46.8569L156.503 47.375ZM163.628 41.75L164.867 43.3198L166.382 42.1238L165.24 40.5673L163.628 41.75ZM159.503 36.125L157.571 35.6044L157.321 36.5325L157.89 37.3077L159.503 36.125ZM163.534 21.1719L162.288 19.6071L161.774 20.0166L161.603 20.6513L163.534 21.1719ZM170.659 15.5V13.5H169.96L169.413 13.9353L170.659 15.5ZM217.534 15.5L219.466 16.0175L220.14 13.5H217.534V15.5ZM214.018 28.625V30.625H215.553L215.95 29.1425L214.018 28.625ZM174.69 28.625V26.625H173.15L172.756 28.114L174.69 28.625ZM172.956 35.1875L171.022 34.6765L170.358 37.1875H172.956V35.1875ZM197.284 35.1875L199.216 35.705L199.89 33.1875H197.284V35.1875ZM193.768 48.3125V50.3125H195.303L195.7 48.83L193.768 48.3125ZM169.393 48.3125L167.462 47.7929L162.165 67.4804L164.096 68L166.028 68.5196L171.324 48.8321L169.393 48.3125ZM164.096 68V66H150.971V68V70H164.096V68ZM150.971 68L152.903 68.5181L158.434 47.8931L156.503 47.375L154.571 46.8569L149.04 67.4819L150.971 68ZM156.503 47.375L157.742 48.9448L164.867 43.3198L163.628 41.75L162.388 40.1802L155.263 45.8052L156.503 47.375ZM163.628 41.75L165.24 40.5673L161.115 34.9423L159.503 36.125L157.89 37.3077L162.015 42.9327L163.628 41.75ZM159.503 36.125L161.434 36.6456L165.465 21.6925L163.534 21.1719L161.603 20.6513L157.571 35.6044L159.503 36.125ZM163.534 21.1719L164.779 22.7366L171.904 17.0647L170.659 15.5L169.413 13.9353L162.288 19.6071L163.534 21.1719ZM170.659 15.5V17.5H217.534V15.5V13.5H170.659V15.5ZM217.534 15.5L215.602 14.9825L212.086 28.1075L214.018 28.625L215.95 29.1425L219.466 16.0175L217.534 15.5ZM214.018 28.625V26.625H174.69V28.625V30.625H214.018V28.625ZM174.69 28.625L172.756 28.114L171.022 34.6765L172.956 35.1875L174.889 35.6985L176.624 29.136L174.69 28.625ZM172.956 35.1875V37.1875H197.284V35.1875V33.1875H172.956V35.1875ZM197.284 35.1875L195.352 34.67L191.836 47.795L193.768 48.3125L195.7 48.83L199.216 35.705L197.284 35.1875ZM193.768 48.3125V46.3125H169.393V48.3125V50.3125H193.768V48.3125ZM263.629 41.75V43.75H265.164L265.561 42.2675L263.629 41.75ZM267.144 28.625L269.076 29.1425L269.751 26.625H267.144V28.625ZM240.894 28.625V26.625H239.36L238.962 28.1075L240.894 28.625ZM237.379 41.75L235.447 41.2325L234.773 43.75H237.379V41.75ZM233.863 54.875V52.875H232.328L231.931 54.3575L233.863 54.875ZM230.348 68L230.34 70L231.881 70.0055L232.279 68.5175L230.348 68ZM217.223 67.9531L215.291 67.4349L214.618 69.9438L217.215 69.9531L217.223 67.9531ZM229.785 21.125L228.551 19.5513L228.026 19.9628L227.853 20.6068L229.785 21.125ZM236.957 15.5V13.5H236.266L235.723 13.9263L236.957 15.5ZM278.16 15.5L279.773 14.3173L279.173 13.5H278.16V15.5ZM282.285 21.125L284.217 21.6427L284.465 20.716L283.898 19.9423L282.285 21.125ZM269.723 68V70H271.257L271.654 68.5177L269.723 68ZM256.598 68L254.666 67.4825L253.991 70H256.598V68ZM260.113 54.875L262.045 55.3925L262.719 52.875H260.113V54.875ZM263.629 41.75L265.561 42.2675L269.076 29.1425L267.144 28.625L265.212 28.1075L261.697 41.2325L263.629 41.75ZM267.144 28.625V26.625H240.894V28.625V30.625H267.144V28.625ZM240.894 28.625L238.962 28.1075L235.447 41.2325L237.379 41.75L239.311 42.2675L242.826 29.1425L240.894 28.625ZM237.379 41.75V43.75H263.629V41.75V39.75H237.379V41.75ZM233.863 54.875L231.931 54.3575L228.416 67.4825L230.348 68L232.279 68.5175L235.795 55.3925L233.863 54.875ZM230.348 68L230.355 66L217.23 65.9531L217.223 67.9531L217.215 69.9531L230.34 70L230.348 68ZM217.223 67.9531L219.154 68.4713L231.717 21.6432L229.785 21.125L227.853 20.6068L215.291 67.4349L217.223 67.9531ZM229.785 21.125L231.019 22.6987L238.191 17.0737L236.957 15.5L235.723 13.9263L228.551 19.5513L229.785 21.125ZM236.957 15.5V17.5H278.16V15.5V13.5H236.957V15.5ZM278.16 15.5L276.547 16.6827L280.672 22.3077L282.285 21.125L283.898 19.9423L279.773 14.3173L278.16 15.5ZM282.285 21.125L280.353 20.6073L267.791 67.4823L269.723 68L271.654 68.5177L284.217 21.6427L282.285 21.125ZM269.723 68V66H256.598V68V70H269.723V68ZM256.598 68L258.529 68.5175L262.045 55.3925L260.113 54.875L258.181 54.3575L254.666 67.4825L256.598 68ZM260.113 54.875V52.875H233.863V54.875V56.875H260.113V54.875ZM301.896 48.3125V46.3125H300.369L299.966 47.7851L301.896 48.3125ZM300.114 54.8281L298.185 54.3007L297.495 56.825L300.112 56.8281L300.114 54.8281ZM339.489 54.875L341.421 55.3925L342.095 52.8781L339.492 52.875L339.489 54.875ZM335.974 68V70H337.509L337.906 68.5175L335.974 68ZM289.146 68L287.539 69.1914L288.139 70H289.146V68ZM284.974 62.375L283.042 61.8559L282.791 62.7897L283.367 63.5664L284.974 62.375ZM289.005 47.375L287.766 45.8052L287.246 46.2159L287.074 46.8559L289.005 47.375ZM296.13 41.75L297.369 43.3198L298.884 42.1238L297.743 40.5673L296.13 41.75ZM292.005 36.125L290.074 35.6044L289.824 36.5325L290.392 37.3077L292.005 36.125ZM296.036 21.1719L294.791 19.6071L294.276 20.0166L294.105 20.6513L296.036 21.1719ZM303.161 15.5V13.5H302.462L301.916 13.9353L303.161 15.5ZM350.036 15.5L351.968 16.0175L352.642 13.5H350.036V15.5ZM346.521 28.625V30.625H348.055L348.453 29.1425L346.521 28.625ZM307.193 28.625V26.625H305.652L305.259 28.114L307.193 28.625ZM305.458 35.1875L303.525 34.6765L302.861 37.1875H305.458V35.1875ZM329.786 35.1875L331.718 35.705L332.392 33.1875H329.786V35.1875ZM326.271 48.3125V50.3125H327.805L328.203 48.83L326.271 48.3125ZM301.896 48.3125L299.966 47.7851L298.185 54.3007L300.114 54.8281L302.044 55.3555L303.825 48.8399L301.896 48.3125ZM300.114 54.8281L300.112 56.8281L339.487 56.875L339.489 54.875L339.492 52.875L300.117 52.8281L300.114 54.8281ZM339.489 54.875L337.557 54.3575L334.042 67.4825L335.974 68L337.906 68.5175L341.421 55.3925L339.489 54.875ZM335.974 68V66H289.146V68V70H335.974V68ZM289.146 68L290.752 66.8086L286.58 61.1836L284.974 62.375L283.367 63.5664L287.539 69.1914L289.146 68ZM284.974 62.375L286.905 62.8941L290.936 47.8941L289.005 47.375L287.074 46.8559L283.042 61.8559L284.974 62.375ZM289.005 47.375L290.244 48.9448L297.369 43.3198L296.13 41.75L294.891 40.1802L287.766 45.8052L289.005 47.375ZM296.13 41.75L297.743 40.5673L293.618 34.9423L292.005 36.125L290.392 37.3077L294.517 42.9327L296.13 41.75ZM292.005 36.125L293.936 36.6456L297.967 21.6925L296.036 21.1719L294.105 20.6513L290.074 35.6044L292.005 36.125ZM296.036 21.1719L297.282 22.7366L304.407 17.0647L303.161 15.5L301.916 13.9353L294.791 19.6071L296.036 21.1719ZM303.161 15.5V17.5H350.036V15.5V13.5H303.161V15.5ZM350.036 15.5L348.104 14.9825L344.589 28.1075L346.521 28.625L348.453 29.1425L351.968 16.0175L350.036 15.5ZM346.521 28.625V26.625H307.193V28.625V30.625H346.521V28.625ZM307.193 28.625L305.259 28.114L303.525 34.6765L305.458 35.1875L307.392 35.6985L309.126 29.136L307.193 28.625ZM305.458 35.1875V37.1875H329.786V35.1875V33.1875H305.458V35.1875ZM329.786 35.1875L327.854 34.67L324.339 47.795L326.271 48.3125L328.203 48.83L331.718 35.705L329.786 35.1875ZM326.271 48.3125V46.3125H301.896V48.3125V50.3125H326.271V48.3125ZM363.788 15.5V13.5H362.253L361.856 14.9825L363.788 15.5ZM376.913 15.5L378.844 16.0175L379.519 13.5H376.913V15.5ZM366.366 54.875L364.434 54.3575L363.759 56.875H366.366V54.875ZM398.241 54.875L400.173 55.3925L400.847 52.875H398.241V54.875ZM394.725 68V70H396.26L396.657 68.5175L394.725 68ZM349.725 68L347.793 67.4825L347.119 70H349.725V68ZM363.788 15.5V17.5H376.913V15.5V13.5H363.788V15.5ZM376.913 15.5L374.981 14.9825L364.434 54.3575L366.366 54.875L368.298 55.3925L378.844 16.0175L376.913 15.5ZM366.366 54.875V56.875H398.241V54.875V52.875H366.366V54.875ZM398.241 54.875L396.309 54.3575L392.793 67.4825L394.725 68L396.657 68.5175L400.173 55.3925L398.241 54.875ZM394.725 68V66H349.725V68V70H394.725V68ZM349.725 68L351.657 68.5175L365.719 16.0175L363.788 15.5L361.856 14.9825L347.793 67.4825L349.725 68ZM530.274 23.4688V25.4688H531.811L532.207 23.9841L530.274 23.4688ZM513.868 23.4688L511.936 22.9522L511.263 25.4688H513.868V23.4688ZM515.134 18.7344L517.066 19.2509L517.74 16.7307L515.131 16.7344L515.134 18.7344ZM482.321 18.7812L482.318 16.7813L480.788 16.7834L480.39 18.2618L482.321 18.7812ZM473.509 51.5469L471.577 51.0274L470.902 53.5404L473.504 53.5469L473.509 51.5469ZM492.259 51.5938L492.254 53.5938H492.259V51.5938ZM506.321 51.5938V53.5938H507.853L508.252 52.1151L506.321 51.5938ZM507.587 46.9062V44.9062H506.055L505.656 46.3849L507.587 46.9062ZM523.993 46.9062L525.924 47.4276L526.605 44.9062H523.993V46.9062ZM520.196 60.9688L521.436 62.5385L521.955 62.1287L522.127 61.4901L520.196 60.9688ZM511.29 68V70H511.984L512.529 69.5698L511.29 68ZM459.774 68L458.167 69.1897L458.766 70H459.774V68ZM454.571 60.9688L452.64 60.4503L452.389 61.3825L452.964 62.1584L454.571 60.9688ZM468.399 9.45312L467.155 7.88737L466.639 8.29769L466.468 8.93463L468.399 9.45312ZM477.306 2.375V0.375H476.608L476.061 0.80925L477.306 2.375ZM528.868 2.375L530.481 1.19227L529.882 0.375H528.868V2.375ZM534.024 9.40625L535.957 9.92158L536.204 8.996L535.637 8.22352L534.024 9.40625ZM530.274 23.4688V21.4688H513.868V23.4688V25.4688H530.274V23.4688ZM513.868 23.4688L515.8 23.9853L517.066 19.2509L515.134 18.7344L513.202 18.2179L511.936 22.9522L513.868 23.4688ZM515.134 18.7344L515.131 16.7344L482.318 16.7813L482.321 18.7812L482.324 20.7812L515.137 20.7344L515.134 18.7344ZM482.321 18.7812L480.39 18.2618L471.577 51.0274L473.509 51.5469L475.44 52.0663L484.253 19.3007L482.321 18.7812ZM473.509 51.5469L473.504 53.5469L492.254 53.5937L492.259 51.5938L492.264 49.5938L473.514 49.5469L473.509 51.5469ZM492.259 51.5938V53.5938H506.321V51.5938V49.5938H492.259V51.5938ZM506.321 51.5938L508.252 52.1151L509.518 47.4276L507.587 46.9062L505.656 46.3849L504.39 51.0724L506.321 51.5938ZM507.587 46.9062V48.9062H523.993V46.9062V44.9062H507.587V46.9062ZM523.993 46.9062L522.062 46.3849L518.265 60.4474L520.196 60.9688L522.127 61.4901L525.924 47.4276L523.993 46.9062ZM520.196 60.9688L518.957 59.399L510.051 66.4302L511.29 68L512.529 69.5698L521.436 62.5385L520.196 60.9688ZM511.29 68V66H459.774V68V70H511.29V68ZM459.774 68L461.382 66.8103L456.179 59.7791L454.571 60.9688L452.964 62.1584L458.167 69.1897L459.774 68ZM454.571 60.9688L456.503 61.4872L470.331 9.97162L468.399 9.45312L466.468 8.93463L452.64 60.4503L454.571 60.9688ZM468.399 9.45312L469.644 11.0189L478.55 3.94075L477.306 2.375L476.061 0.80925L467.155 7.88737L468.399 9.45312ZM477.306 2.375V4.375H528.868V2.375V0.375H477.306V2.375ZM528.868 2.375L527.255 3.55773L532.412 10.589L534.024 9.40625L535.637 8.22352L530.481 1.19227L528.868 2.375ZM534.024 9.40625L532.092 8.89092L528.342 22.9534L530.274 23.4688L532.207 23.9841L535.957 9.92158L534.024 9.40625ZM578.479 41.75V43.75H580.014L580.411 42.2675L578.479 41.75ZM581.994 28.625L583.926 29.1425L584.601 26.625H581.994V28.625ZM555.744 28.625V26.625H554.21L553.812 28.1075L555.744 28.625ZM552.229 41.75L550.297 41.2325L549.623 43.75H552.229V41.75ZM548.713 54.875V52.875H547.178L546.781 54.3575L548.713 54.875ZM545.198 68L545.19 70L546.731 70.0055L547.129 68.5175L545.198 68ZM532.073 67.9531L530.141 67.4349L529.468 69.9438L532.065 69.9531L532.073 67.9531ZM544.635 21.125L543.401 19.5513L542.876 19.9628L542.703 20.6068L544.635 21.125ZM551.807 15.5V13.5H551.116L550.573 13.9263L551.807 15.5ZM593.01 15.5L594.623 14.3173L594.023 13.5H593.01V15.5ZM597.135 21.125L599.067 21.6427L599.315 20.716L598.748 19.9423L597.135 21.125ZM584.573 68V70H586.107L586.504 68.5177L584.573 68ZM571.448 68L569.516 67.4825L568.841 70H571.448V68ZM574.963 54.875L576.895 55.3925L577.569 52.875H574.963V54.875ZM578.479 41.75L580.411 42.2675L583.926 29.1425L581.994 28.625L580.062 28.1075L576.547 41.2325L578.479 41.75ZM581.994 28.625V26.625H555.744V28.625V30.625H581.994V28.625ZM555.744 28.625L553.812 28.1075L550.297 41.2325L552.229 41.75L554.161 42.2675L557.676 29.1425L555.744 28.625ZM552.229 41.75V43.75H578.479V41.75V39.75H552.229V41.75ZM548.713 54.875L546.781 54.3575L543.266 67.4825L545.198 68L547.129 68.5175L550.645 55.3925L548.713 54.875ZM545.198 68L545.205 66L532.08 65.9531L532.073 67.9531L532.065 69.9531L545.19 70L545.198 68ZM532.073 67.9531L534.004 68.4713L546.567 21.6432L544.635 21.125L542.703 20.6068L530.141 67.4349L532.073 67.9531ZM544.635 21.125L545.869 22.6987L553.041 17.0737L551.807 15.5L550.573 13.9263L543.401 19.5513L544.635 21.125ZM551.807 15.5V17.5H593.01V15.5V13.5H551.807V15.5ZM593.01 15.5L591.397 16.6827L595.522 22.3077L597.135 21.125L598.748 19.9423L594.623 14.3173L593.01 15.5ZM597.135 21.125L595.203 20.6073L582.641 67.4823L584.573 68L586.504 68.5177L599.067 21.6427L597.135 21.125ZM584.573 68V66H571.448V68V70H584.573V68ZM571.448 68L573.379 68.5175L576.895 55.3925L574.963 54.875L573.031 54.3575L569.516 67.4825L571.448 68ZM574.963 54.875V52.875H548.713V54.875V56.875H574.963V54.875ZM612.386 15.5V13.5H610.851L610.454 14.9825L612.386 15.5ZM625.511 15.5L627.443 16.0175L628.117 13.5H625.511V15.5ZM614.964 54.875L613.032 54.3575L612.358 56.875H614.964V54.875ZM646.839 54.875L648.771 55.3925L649.446 52.875H646.839V54.875ZM643.324 68V70H644.859L645.256 68.5175L643.324 68ZM598.324 68L596.392 67.4825L595.718 70H598.324V68ZM612.386 15.5V17.5H625.511V15.5V13.5H612.386V15.5ZM625.511 15.5L623.579 14.9825L613.032 54.3575L614.964 54.875L616.896 55.3925L627.443 16.0175L625.511 15.5ZM614.964 54.875V56.875H646.839V54.875V52.875H614.964V54.875ZM646.839 54.875L644.907 54.3575L641.392 67.4825L643.324 68L645.256 68.5175L648.771 55.3925L646.839 54.875ZM643.324 68V66H598.324V68V70H643.324V68ZM598.324 68L600.256 68.5175L614.318 16.0175L612.386 15.5L610.454 14.9825L596.392 67.4825L598.324 68ZM710.513 15.5V13.5H708.978L708.581 14.9825L710.513 15.5ZM723.638 15.5L725.57 16.0162L726.242 13.5H723.638V15.5ZM714.872 48.3125L716.11 49.8834L716.632 49.4716L716.804 48.8287L714.872 48.3125ZM689.888 68V70H690.581L691.125 69.5709L689.888 68ZM676.763 68L675.148 69.1802L675.747 70H676.763V68ZM662.372 48.3125L660.44 47.7956L660.193 48.7201L660.757 49.4927L662.372 48.3125ZM671.138 15.5469L671.13 13.5469L669.601 13.5524L669.205 15.03L671.138 15.5469ZM684.263 15.5L686.194 16.0175L686.871 13.4907L684.255 13.5L684.263 15.5ZM677.231 41.75L675.299 41.2325L675.051 42.1582L675.618 42.9315L677.231 41.75ZM686.841 54.875L685.227 56.0565L686.452 57.7291L688.079 56.4453L686.841 54.875ZM703.481 41.75L704.72 43.3203L705.241 42.909L705.413 42.2675L703.481 41.75ZM710.513 15.5V17.5H723.638V15.5V13.5H710.513V15.5ZM723.638 15.5L721.705 14.9838L712.94 47.7963L714.872 48.3125L716.804 48.8287L725.57 16.0162L723.638 15.5ZM714.872 48.3125L713.634 46.7416L688.65 66.4291L689.888 68L691.125 69.5709L716.11 49.8834L714.872 48.3125ZM689.888 68V66H676.763V68V70H689.888V68ZM676.763 68L678.377 66.8198L663.987 47.1323L662.372 48.3125L660.757 49.4927L675.148 69.1802L676.763 68ZM662.372 48.3125L664.304 48.8294L673.07 16.0637L671.138 15.5469L669.205 15.03L660.44 47.7956L662.372 48.3125ZM671.138 15.5469L671.145 17.5469L684.27 17.5L684.263 15.5L684.255 13.5L671.13 13.5469L671.138 15.5469ZM684.263 15.5L682.331 14.9825L675.299 41.2325L677.231 41.75L679.163 42.2675L686.194 16.0175L684.263 15.5ZM677.231 41.75L675.618 42.9315L685.227 56.0565L686.841 54.875L688.454 53.6935L678.845 40.5685L677.231 41.75ZM686.841 54.875L688.079 56.4453L704.72 43.3203L703.481 41.75L702.243 40.1797L685.602 53.3047L686.841 54.875ZM703.481 41.75L705.413 42.2675L712.444 16.0175L710.513 15.5L708.581 14.9825L701.549 41.2325L703.481 41.75ZM766.217 54.875V56.875H767.752L768.149 55.3925L766.217 54.875ZM773.248 28.625L775.18 29.1425L775.854 26.625H773.248V28.625ZM746.998 28.625V26.625H745.463L745.066 28.1075L746.998 28.625ZM739.967 54.875L738.035 54.3575L737.361 56.875H739.967V54.875ZM777.326 62.375L778.566 63.9448L779.086 63.5337L779.258 62.8931L777.326 62.375ZM770.201 68V70H770.896L771.441 69.5698L770.201 68ZM728.998 68L727.392 69.1914L727.991 70H728.998V68ZM724.826 62.375L722.895 61.8564L722.644 62.79L723.22 63.5664L724.826 62.375ZM735.889 21.1719L734.643 19.6071L734.128 20.0173L733.957 20.6533L735.889 21.1719ZM743.014 15.5V13.5H742.315L741.768 13.9353L743.014 15.5ZM784.264 15.5L785.877 14.3173L785.277 13.5H784.264V15.5ZM788.389 21.125L790.32 21.6431L790.569 20.7161L790.002 19.9423L788.389 21.125ZM766.217 54.875L768.149 55.3925L775.18 29.1425L773.248 28.625L771.316 28.1075L764.285 54.3575L766.217 54.875ZM773.248 28.625V26.625H746.998V28.625V30.625H773.248V28.625ZM746.998 28.625L745.066 28.1075L738.035 54.3575L739.967 54.875L741.899 55.3925L748.93 29.1425L746.998 28.625ZM739.967 54.875V56.875H766.217V54.875V52.875H739.967V54.875ZM777.326 62.375L776.087 60.8052L768.962 66.4302L770.201 68L771.441 69.5698L778.566 63.9448L777.326 62.375ZM770.201 68V66H728.998V68V70H770.201V68ZM728.998 68L730.604 66.8086L726.433 61.1836L724.826 62.375L723.22 63.5664L727.392 69.1914L728.998 68ZM724.826 62.375L726.758 62.8936L737.82 21.6905L735.889 21.1719L733.957 20.6533L722.895 61.8564L724.826 62.375ZM735.889 21.1719L737.134 22.7366L744.259 17.0647L743.014 15.5L741.768 13.9353L734.643 19.6071L735.889 21.1719ZM743.014 15.5V17.5H784.264V15.5V13.5H743.014V15.5ZM784.264 15.5L782.651 16.6827L786.776 22.3077L788.389 21.125L790.002 19.9423L785.877 14.3173L784.264 15.5ZM788.389 21.125L786.457 20.6069L775.394 61.8569L777.326 62.375L779.258 62.8931L790.32 21.6431L788.389 21.125Z" fill="black" mask="url(#path-1-outside-1_146_6)"/>
</svg>
